{
	"asset":{
		"generator":"Khronos glTF Blender I/O v4.0.44",
		"version":"2.0"
	},
	"scene":0,
	"scenes":[
		{
			"name":"Scene",
			"nodes":[
				0,
				1,
				2,
				3
			]
		}
	],
	"nodes":[
		{
			"mesh":0,
			"name":"Sphere.032",
			"scale":[
				-0.11468344926834106,
				-0.11468344926834106,
				-0.11468344926834106
			],
			"translation":[
				0,
				0,
				0.1054239273071289
			]
		},
		{
			"mesh":1,
			"name":"Sphere.033",
			"scale":[
				-0.05039713904261589,
				-0.05039713904261589,
				-0.05039713904261589
			],
			"translation":[
				0,
				0,
				1.7271652221679688
			]
		},
		{
			"mesh":2,
			"name":"Cylinder.007",
			"rotation":[
				0.7071068286895752,
				0,
				0,
				0.7071068286895752
			],
			"scale":[
				0.008891304023563862,
				0.7559096217155457,
				0.008891304023563862
			],
			"translation":[
				0,
				0,
				0.9573020935058594
			]
		},
		{
			"mesh":3,
			"name":"Plane.007",
			"rotation":[
				0,
				0,
				1,
				1.6292069915380125e-07
			],
			"scale":[
				0.31845927238464355,
				0.31845927238464355,
				0.31845927238464355
			],
			"translation":[
				0.42242270708084106,
				0.025609226897358894,
				1.4071060419082642
			]
		}
	],
	"materials":[
		{
			"doubleSided":true,
			"name":"Material.069",
			"pbrMetallicRoughness":{
				"baseColorFactor":[
					0,
					0,
					0,
					1
				],
				"metallicFactor":0,
				"roughnessFactor":0.5
			}
		},
		{
			"doubleSided":true,
			"name":"Material.105",
			"pbrMetallicRoughness":{
				"baseColorTexture":{
					"index":0
				},
				"metallicFactor":0,
				"roughnessFactor":0.5
			}
		}
	],
	"meshes":[
		{
			"name":"Sphere.032",
			"primitives":[
				{
					"attributes":{
						"POSITION":0,
						"NORMAL":1,
						"TEXCOORD_0":2,
						"TEXCOORD_1":3
					},
					"indices":4,
					"material":0
				}
			]
		},
		{
			"name":"Sphere.033",
			"primitives":[
				{
					"attributes":{
						"POSITION":5,
						"NORMAL":6,
						"TEXCOORD_0":7,
						"TEXCOORD_1":8
					},
					"indices":9,
					"material":0
				}
			]
		},
		{
			"name":"Cylinder.007",
			"primitives":[
				{
					"attributes":{
						"POSITION":10,
						"NORMAL":11,
						"TEXCOORD_0":12,
						"TEXCOORD_1":13
					},
					"indices":14,
					"material":0
				}
			]
		},
		{
			"name":"Plane.010",
			"primitives":[
				{
					"attributes":{
						"POSITION":15,
						"NORMAL":16,
						"TEXCOORD_0":17
					},
					"indices":18,
					"material":1
				}
			]
		}
	],
	"textures":[
		{
			"sampler":0,
			"source":0
		}
	],
	"images":[
		{
			"mimeType":"image/png",
			"name":"us_",
			"uri":"us_.png"
		}
	],
	"accessors":[
		{
			"bufferView":0,
			"componentType":5126,
			"count":1080,
			"max":[
				0.9992207288742065,
				0.9992210268974304,
				-0.007908344268798828
			],
			"min":[
				-0.9992201328277588,
				-0.9992210268974304,
				-0.9999995231628418
			],
			"type":"VEC3"
		},
		{
			"bufferView":1,
			"componentType":5126,
			"count":1080,
			"type":"VEC3"
		},
		{
			"bufferView":2,
			"componentType":5126,
			"count":1080,
			"type":"VEC2"
		},
		{
			"bufferView":3,
			"componentType":5126,
			"count":1080,
			"type":"VEC2"
		},
		{
			"bufferView":4,
			"componentType":5123,
			"count":1698,
			"type":"SCALAR"
		},
		{
			"bufferView":5,
			"componentType":5126,
			"count":1984,
			"max":[
				0.9999997019767761,
				1,
				0.9999993443489075
			],
			"min":[
				-0.9999990463256836,
				-1,
				-1
			],
			"type":"VEC3"
		},
		{
			"bufferView":6,
			"componentType":5126,
			"count":1984,
			"type":"VEC3"
		},
		{
			"bufferView":7,
			"componentType":5126,
			"count":1984,
			"type":"VEC2"
		},
		{
			"bufferView":8,
			"componentType":5126,
			"count":1984,
			"type":"VEC2"
		},
		{
			"bufferView":9,
			"componentType":5123,
			"count":2880,
			"type":"SCALAR"
		},
		{
			"bufferView":10,
			"componentType":5126,
			"count":192,
			"max":[
				1,
				1,
				1
			],
			"min":[
				-1,
				-1,
				-1
			],
			"type":"VEC3"
		},
		{
			"bufferView":11,
			"componentType":5126,
			"count":192,
			"type":"VEC3"
		},
		{
			"bufferView":12,
			"componentType":5126,
			"count":192,
			"type":"VEC2"
		},
		{
			"bufferView":13,
			"componentType":5126,
			"count":192,
			"type":"VEC2"
		},
		{
			"bufferView":14,
			"componentType":5123,
			"count":372,
			"type":"SCALAR"
		},
		{
			"bufferView":15,
			"componentType":5126,
			"count":484,
			"max":[
				1.3171758651733398,
				0.5160025954246521,
				0.9178450107574463
			],
			"min":[
				-1.2729377746582031,
				-0.8672032952308655,
				-1.094139814376831
			],
			"type":"VEC3"
		},
		{
			"bufferView":16,
			"componentType":5126,
			"count":484,
			"type":"VEC3"
		},
		{
			"bufferView":17,
			"componentType":5126,
			"count":484,
			"type":"VEC2"
		},
		{
			"bufferView":18,
			"componentType":5123,
			"count":726,
			"type":"SCALAR"
		}
	],
	"bufferViews":[
		{
			"buffer":0,
			"byteLength":12960,
			"byteOffset":0,
			"target":34962
		},
		{
			"buffer":0,
			"byteLength":12960,
			"byteOffset":12960,
			"target":34962
		},
		{
			"buffer":0,
			"byteLength":8640,
			"byteOffset":25920,
			"target":34962
		},
		{
			"buffer":0,
			"byteLength":8640,
			"byteOffset":34560,
			"target":34962
		},
		{
			"buffer":0,
			"byteLength":3396,
			"byteOffset":43200,
			"target":34963
		},
		{
			"buffer":0,
			"byteLength":23808,
			"byteOffset":46596,
			"target":34962
		},
		{
			"buffer":0,
			"byteLength":23808,
			"byteOffset":70404,
			"target":34962
		},
		{
			"buffer":0,
			"byteLength":15872,
			"byteOffset":94212,
			"target":34962
		},
		{
			"buffer":0,
			"byteLength":15872,
			"byteOffset":110084,
			"target":34962
		},
		{
			"buffer":0,
			"byteLength":5760,
			"byteOffset":125956,
			"target":34963
		},
		{
			"buffer":0,
			"byteLength":2304,
			"byteOffset":131716,
			"target":34962
		},
		{
			"buffer":0,
			"byteLength":2304,
			"byteOffset":134020,
			"target":34962
		},
		{
			"buffer":0,
			"byteLength":1536,
			"byteOffset":136324,
			"target":34962
		},
		{
			"buffer":0,
			"byteLength":1536,
			"byteOffset":137860,
			"target":34962
		},
		{
			"buffer":0,
			"byteLength":744,
			"byteOffset":139396,
			"target":34963
		},
		{
			"buffer":0,
			"byteLength":5808,
			"byteOffset":140140,
			"target":34962
		},
		{
			"buffer":0,
			"byteLength":5808,
			"byteOffset":145948,
			"target":34962
		},
		{
			"buffer":0,
			"byteLength":3872,
			"byteOffset":151756,
			"target":34962
		},
		{
			"buffer":0,
			"byteLength":1452,
			"byteOffset":155628,
			"target":34963
		}
	],
	"samplers":[
		{
			"magFilter":9729,
			"minFilter":9987
		}
	],
	"buffers":[
		{
			"byteLength":157080,
			"uri":"us.bin"
		}
	]
}
